<svg xmlns="http://www.w3.org/2000/svg" viewBox="0 0 24 24" width="24" height="24">
  <circle cx="12" cy="12" r="10" stroke="white" stroke-width="2" fill="none" />
  <path d="M19 7.5c-.7.3-1.4.5-2.1.6.8-.5 1.4-1.2 1.7-2-.7.5-1.5.8-2.4 1-.7-.7-1.6-1-2.6-1-2 0-3.6 1.6-3.6 3.6 0 .3 0 .7.1 1C7.7 11 5.9 10.2 4.5 9c-.3.5-.5 1.1-.5 1.7 0 1.2.6 2.2 1.6 2.9-.6 0-1.1-.2-1.6-.4v.1c0 1.7 1.2 3.1 2.8 3.4-.3.1-.6.1-.9.1-.2 0-.4 0-.5-.1.4 1.3 1.6 2.2 3 2.2-1.1.9-2.5 1.4-4 1.4-.3 0-.6 0-.8-.1 1.4.9 3 1.5 4.8 1.5 5.7 0 8.8-4.8 8.8-8.8v-.4c.6-.4 1.3-1.1 1.7-1.7z" fill="none" stroke="white" stroke-width="1"/>
</svg>
